<svg xmlns="http://www.w3.org/2000/svg" viewBox="0 0 805 68"><title>Asset 1</title><g id="Layer_2" data-name="Layer 2"><g id="Layer_1-2" data-name="Layer 1"><path d="M16.7,2.85h-.48V53.1c0,3.1-.5,5.4-1.5,6.93a5.09,5.09,0,0,1-4.57,2.28,6.48,6.48,0,0,1-3.51-.93,7.38,7.38,0,0,1-2.53-2.83L4,58.32l-.12-.22-.22.14-.22.14-1.53,1-1.53,1-.19.12L0,60.53l.11.2.11.2a11.12,11.12,0,0,0,4.11,4.44,11.43,11.43,0,0,0,5.92,1.49q5.24,0,7.88-3.41t2.64-10.17V2.85H16.7Z" transform="translate(0 0)"/><path d="M69.63,62.26a15.52,15.52,0,0,1-1.25.94A15.68,15.68,0,0,1,67,64a15.68,15.68,0,0,0,1.34-.82,15.49,15.49,0,0,0,1.25-.94A15.1,15.1,0,0,0,73,58.43a14.54,14.54,0,0,0,1.8-4.69A14.54,14.54,0,0,1,73,58.43a15.11,15.11,0,0,1-3.35,3.84ZM57,66.28A25,25,0,0,1,53.33,66,20.43,20.43,0,0,1,50,65.25,18,18,0,0,1,47,64a17.42,17.42,0,0,1-2.69-1.8A17.42,17.42,0,0,0,47,64a18,18,0,0,0,3,1.28,20.43,20.43,0,0,0,3.32.77,25,25,0,0,0,3.64.26A26.7,26.7,0,0,0,60.71,66a20.62,20.62,0,0,0,3.36-.75,20.62,20.62,0,0,1-3.36.75,26.64,26.64,0,0,1-3.74.25ZM71.55,2.85h-.48V50.13A11.62,11.62,0,0,1,70,55.18a10.94,10.94,0,0,1-3.2,3.92,14,14,0,0,1-4.45,2.34,17.7,17.7,0,0,1-5.38.79,18.31,18.31,0,0,1-5.43-.76,13.6,13.6,0,0,1-4.4-2.28A10.47,10.47,0,0,1,44,55.28a12.18,12.18,0,0,1-1-5.16V2.85H38.51V50.13a17.16,17.16,0,0,0,1.38,7A14.8,14.8,0,0,0,44,62.54a18.1,18.1,0,0,0,5.85,3.16A23,23,0,0,0,57,66.76a23.86,23.86,0,0,0,7.25-1,16.71,16.71,0,0,0,5.71-3.09,15.2,15.2,0,0,0,4.25-5.47,16.86,16.86,0,0,0,1.42-7V2.85H71.55Z" transform="translate(0 0)"/><path d="M114.05,65.14a18.25,18.25,0,0,1-1.78.53q-.93.23-1.93.38,1-.15,1.93-.38a18.14,18.14,0,0,0,1.78-.53,17.65,17.65,0,0,0,3.41-1.69,14,14,0,0,0,2.71-2.26,14,14,0,0,1-2.71,2.26,17.62,17.62,0,0,1-3.41,1.69ZM87.6,52.83h0a22.8,22.8,0,0,0,2.69,5.92,16.23,16.23,0,0,0,4,4.23,16.22,16.22,0,0,1-4-4.23,22.8,22.8,0,0,1-2.69-5.92Zm28.29-13.62q-.31-.28-.69-.58t-.86-.62q.47.32.86.62t.69.58a13.19,13.19,0,0,1,4.63,10.3,13.2,13.2,0,0,0-4.63-10.3Zm-10.21-5.67-1.78-.82-1.63-.79q-1.56-.78-2.83-1.5t-2.24-1.39q1,.67,2.24,1.39t2.83,1.5l1.63.79,1.78.82q2,.87,3.58,1.66t2.88,1.48q-1.27-.7-2.88-1.48t-3.58-1.66Zm9.08-25.14a10.73,10.73,0,0,0-1.64-.84,13,13,0,0,0-1.87-.6,13,13,0,0,1,1.87.6,10.76,10.76,0,0,1,1.64.84,9.87,9.87,0,0,1,1.18.79,10.94,10.94,0,0,1,1.09,1,10.92,10.92,0,0,0-1.09-1,9.89,9.89,0,0,0-1.18-.79Zm-16.5,1a11.62,11.62,0,0,1,1.81-1.26,11.86,11.86,0,0,1,2-.9,11.86,11.86,0,0,0-2,.9,11.61,11.61,0,0,0-1.81,1.26Zm16.22,23.73q-1.49-.9-3.28-1.82t-3.84-1.84Q104.12,28,102,26.81a22.52,22.52,0,0,1-3.23-2A11,11,0,0,1,96,21.35a8.84,8.84,0,0,1-.92-4,10.23,10.23,0,0,1,.88-4.29,9.49,9.49,0,0,1,2.62-3.37,11.19,11.19,0,0,1,3.7-2.08,14.23,14.23,0,0,1,4.55-.7,18.4,18.4,0,0,1,4.29.46,11.3,11.3,0,0,1,3.4,1.39,10,10,0,0,1,2.19,1.7,13.25,13.25,0,0,1,1.85,2.42l.11.18.11.18.19-.08.19-.08,1.7-.74,1.7-.74.24-.1.24-.1-.13-.23-.13-.23a15.41,15.41,0,0,0-6.34-6.33A20.32,20.32,0,0,0,106.8,2.5a18.43,18.43,0,0,0-6.28,1,16,16,0,0,0-5.21,3.1,13.22,13.22,0,0,0-3.58,4.72,14.66,14.66,0,0,0-1.2,6,14.9,14.9,0,0,0,1.18,6,13.22,13.22,0,0,0,3.52,4.73,23.07,23.07,0,0,0,3.94,2.7q2.57,1.46,6.3,3.13,2,.87,3.56,1.65c1.07.52,2,1,2.86,1.47s1.54.89,2.15,1.3a12.51,12.51,0,0,1,1.51,1.16,12.8,12.8,0,0,1,4.47,10,15.17,15.17,0,0,1-.95,5.56,10.17,10.17,0,0,1-2.82,4,12.29,12.29,0,0,1-4.42,2.4,19.55,19.55,0,0,1-5.83.8,15.08,15.08,0,0,1-9.33-2.68,14.56,14.56,0,0,1-5.06-8.14l-.07-.25L91.5,51l-.24.08-.24.08-1.79.61-1.79.61-.22.07-.22.07.07.22.07.22A19.37,19.37,0,0,0,94,63.36q4.73,3.48,12,3.48a29.18,29.18,0,0,0,4.4-.31,20.38,20.38,0,0,0,3.8-.94,15.22,15.22,0,0,0,7.76-6,18.34,18.34,0,0,0,2.6-10.11,18.33,18.33,0,0,0-1.31-7,17.06,17.06,0,0,0-3.9-5.74,20.49,20.49,0,0,0-2.16-1.86,31.46,31.46,0,0,0-2.73-1.83Z" transform="translate(0 0)"/><path d="M152.46,65.67h0ZM135.09,2.85h-.48V7.38h13.8V66.15h4.53V7.38h13.79V2.85H135.09Z" transform="translate(0 0)"/><path d="M187.55,65.67h0ZM184.06,2.85h-.48V66.15H188V2.85h-4Z" transform="translate(0 0)"/><path d="M213.06,12.76l23.31,27,23.31,27h0l-23.31-27-23.31-27Zm0,52.91h0Zm43-8.21L232.84,30.18,209.57,2.89h0l23.27,27.28,23.27,27.28Zm0-54.61h-.48V56.16L232.78,29.37,209.93,2.58l-.42-.49-.42-.49V66.15h4.45V14l22.89,26.49L259.32,67l.42.49.42.49V2.85h-4.06Z" transform="translate(0 0)"/><path d="M360.42,65.67l-3.58-9.34L353.26,47h0l3.58,9.34,3.58,9.34h0Zm-42.78,0h0L319,62l1.41-3.62L319,62l-1.41,3.62ZM351.78,43.4,345.4,26.9,339,10.4l6.37,16.5,6.37,16.5ZM327,42.93l6-15.6,6-15.6,6,15.6,6,15.6H327Zm12.5-41.78-.22-.57L339,0l-.22.57-.22.57L326.14,33.32,313.7,65.5l-.13.32-.13.32H318L318,66l.06-.15,3.56-9.19,3.56-9.19h27.72l3.52,9.19L360,65.84,360,66l.06.15h4.61l-.13-.33-.13-.32L352,33.32,339.48,1.15Z" transform="translate(0 0)"/><path d="M402,65.67h0ZM385,61.61V2.85h-4.45V66.15h22V61.61H385Z" transform="translate(0 0)"/><path d="M420.27,65.67Zm0-62.82h-.48V66.15h30.9V61.61H424.33V33.93h26.37v-4.8H424.33V7.38h26.37V2.85H420.27Z" transform="translate(0 0)"/><path d="M505.88,65.67l-8.3-14.45L489.3,36.77h0l8.29,14.45,8.3,14.45H510l-3.91-6.81L502.17,52l3.91,6.81L510,65.67h-4.1Zm-33,0h0l6.44-11.33L485.75,43l-6.43,11.33-6.44,11.33Zm16.5-35.36h0L481.7,16.82,474,3.33l7.69,13.49,7.68,13.49Zm15.45-27h0l-3,5.24-3,5.24,3-5.24,3-5.24Zm4.11,0-8.64,15.19-8.64,15.19h0l8.64-15.19,8.64-15.19ZM492.2,33.71l8.57-15.07,8.57-15.07.21-.36.2-.36h-5.2l-.07.12-.07.12L496.9,16.22l-7.52,13.13-7.48-13.13L474.43,3.09,474.36,3l-.07-.12h-5.2l.21.36.21.36,8.57,14.94,8.57,14.94-9.1,16-9.1,16-.21.36-.2.36h5.11l.07-.12.07-.12,8-14.09,8-14.09,8.08,14.09,8.09,14.09.07.12.07.12h5.2l-.21-.36-.21-.36-9.1-15.86-9.1-15.86Z" transform="translate(0 0)"/><path d="M568.18,65.67l-1.37-3.58-1.37-3.58,1.37,3.58,1.37,3.58h0ZM532.64,47l-1.41,3.62-1.4,3.62,1.4-3.62L532.64,47h0ZM521.91,65.67l4.73-12.23,4.73-12.23-4.73,12.23-4.73,12.23h0ZM559.53,43.4l-1.77-4.6L556,34.21l1.77,4.6,1.77,4.6Zm-24.8-.48,6-15.6,6-15.6,6,15.6,6,15.6h-24.1ZM546.79,10.4h0l-6.37,16.5L534,43.4h0l6.37-16.5,6.37-16.5Zm18,37.28-9-23.18-9-23.18h0l9,23.18,9,23.18ZM547.23,1.15,547,.58,546.79,0l-.22.57-.22.57L533.9,33.32,521.46,65.5l-.12.32-.13.32h4.52l.06-.15.06-.15,3.56-9.19L533,47.46h27.72l3.52,9.19,3.52,9.19.06.15.06.15h4.61l-.13-.33-.12-.32L559.72,33.32,547.23,1.15Z" transform="translate(0 0)"/><path d="M638.61,66.72h0V3.33h0V66.72Zm-46.62-1h0ZM635,3.33V57.46h0V3.33Zm0-.48h-.48V56.16L611.7,29.37,588.86,2.58l-.42-.49L588,1.6V66.15h4.45V14l22.89,26.49L638.24,67l.42.49.42.49V2.85H635Z" transform="translate(0 0)"/><path d="M699.24,12.71c-.32-.39-.66-.77-1-1.14s-.69-.72-1-1.07q.53.52,1,1.07t1,1.14q.46.55.9,1.12c.29.38.57.76.84,1.15-.27-.39-.55-.77-.84-1.15s-.59-.75-.9-1.12Zm6.38,12.59q-.35-1.42-.81-2.77t-1-2.64q.58,1.29,1,2.64t.81,2.77Zm.59,15.27q.23-1.49.34-3t.12-3.17q0,1.62-.12,3.17t-.34,3Zm-3.67,10.91q.69-1.24,1.26-2.54t1-2.67q-.46,1.36-1,2.67t-1.26,2.54ZM678.81,65.62H658V3.28h0V65.62h20.78a30.85,30.85,0,0,0,4.58-.33,26.4,26.4,0,0,0,4.24-1A23,23,0,0,0,691,62.89a25.57,25.57,0,0,0,3.13-1.9,25.51,25.51,0,0,1-3.13,1.9,23,23,0,0,1-3.38,1.41,26.4,26.4,0,0,1-4.24,1,30.8,30.8,0,0,1-4.58.33Zm0-62.34c1,0,2.07,0,3.07.15a27.73,27.73,0,0,1,2.92.44,27.73,27.73,0,0,0-2.92-.44c-1-.1-2-.15-3.07-.15ZM661.52,6.78h0V62h0V6.78Zm.48.48h16.81a22.85,22.85,0,0,1,9.8,2.06,21.89,21.89,0,0,1,7.72,6.15A26.57,26.57,0,0,1,701,24a32.87,32.87,0,0,1,1.57,10.36,32.66,32.66,0,0,1-1.87,11.36,24.47,24.47,0,0,1-5.59,8.82,23.86,23.86,0,0,1-7.55,5.25,22,22,0,0,1-8.78,1.76H662V7.25Zm33.48,47.63a27.57,27.57,0,0,1-2.74,2.43,23.6,23.6,0,0,1-2.92,1.93,23.6,23.6,0,0,0,2.92-1.93,27.57,27.57,0,0,0,2.74-2.43c.32-.32.62-.65.92-1s.58-.67.86-1q-.42.52-.86,1c-.3.33-.6.66-.92,1ZM678.81,2.81H657.55V66.1h21.26a27.59,27.59,0,0,0,11.65-2.41,26.24,26.24,0,0,0,9.23-7.19,31.57,31.57,0,0,0,5.57-10.06,37.67,37.67,0,0,0,1.87-12.07,36.8,36.8,0,0,0-1.89-12,31.07,31.07,0,0,0-5.64-10,26.27,26.27,0,0,0-9.2-7.19,27.35,27.35,0,0,0-11.59-2.41Z" transform="translate(0 0)"/><path d="M721.25,65.67Zm0-62.82h-.47V66.15h30.9V61.61H725.31V33.93h26.37v-4.8H725.31V7.38h26.37V2.85H721.25Z" transform="translate(0 0)"/><path d="M799.94,65.67h4.19l-10-15.58-10-15.58a27.42,27.42,0,0,0,3.6-.23,22.1,22.1,0,0,0,3.3-.69,22.1,22.1,0,0,1-3.3.69,27.38,27.38,0,0,1-3.6.23l10,15.58,10,15.58h-4.19ZM773.4,34.5h6.72l8.1,12.75L796.33,60l-8.1-12.75-8.1-12.75H773.4Zm0,31.17h0ZM784.31,3.33h0Zm17,15.46c0,.68,0,1.34-.08,2S801.13,22,801,22.6c.11-.59.18-1.2.24-1.84s.08-1.3.08-2a17.92,17.92,0,0,0-.34-3.54,13.61,13.61,0,0,0-1-3.1,13.61,13.61,0,0,1,1,3.1,17.6,17.6,0,0,1,.34,3.54Zm-4.85,12a12.09,12.09,0,0,0,2-2.18,13.57,13.57,0,0,0,1.53-2.71,13.57,13.57,0,0,1-1.53,2.71,12.09,12.09,0,0,1-2,2.18ZM789.32,8.11a13.51,13.51,0,0,1,2.21.88,11.7,11.7,0,0,1,1.91,1.22A9.13,9.13,0,0,1,795,11.77,10,10,0,0,1,796.94,16a13.65,13.65,0,0,1,.25,2.68,14.3,14.3,0,0,1-.83,5,9.39,9.39,0,0,1-2.47,3.69,11,11,0,0,1-3.84,2.26,14.88,14.88,0,0,1-4.88.76H773.87V7.38h10.35a18.8,18.8,0,0,1,2.63.18,16.41,16.41,0,0,1,2.46.54Zm8.35,10.59a17,17,0,0,1-.22,2.79,12.54,12.54,0,0,1-.65,2.44,12.54,12.54,0,0,0,.65-2.44,17,17,0,0,0,.22-2.79,14,14,0,0,0-.27-2.78,10.49,10.49,0,0,0-.79-2.41,10.69,10.69,0,0,0-.57-1.06,9.89,9.89,0,0,0-.67-1,10.53,10.53,0,0,1,1.24,2,10.49,10.49,0,0,1,.79,2.41,14,14,0,0,1,.27,2.78Zm-3.93-8.86a12.07,12.07,0,0,0-2-1.27,13.91,13.91,0,0,0-2.29-.92,13.92,13.92,0,0,1,2.29.92,12.07,12.07,0,0,1,2,1.27Zm10.79,55.58-9.76-15.22L785,35a26.93,26.93,0,0,0,3.21-.28,22.41,22.41,0,0,0,3-.64,16.63,16.63,0,0,0,3-1.21,14.58,14.58,0,0,0,2.6-1.72,12.58,12.58,0,0,0,2.13-2.26A14.1,14.1,0,0,0,800.51,26a15.34,15.34,0,0,0,1-3.35,22.13,22.13,0,0,0,.33-3.91,18,18,0,0,0-.35-3.64,14,14,0,0,0-1-3.2,15.7,15.7,0,0,0-1.63-2.73,14.5,14.5,0,0,0-2.11-2.27,14.8,14.8,0,0,0-2.57-1.78,17,17,0,0,0-3-1.28,21.35,21.35,0,0,0-3.3-.77,23.22,23.22,0,0,0-3.48-.26H769.43V66.15h4.45V35h6l9.84,15.47,9.84,15.47.07.11.07.11H805l-.24-.37-.24-.37Z" transform="translate(0 0)"/></g></g></svg>